<svg width="32" height="32" viewBox="0 0 32 32" fill="none" xmlns="http://www.w3.org/2000/svg">
<path d="M23.4623 3.00021C25.4839 3.00021 27.4229 3.80315 28.8526 5.23245C29.5604 5.9401 30.1219 6.78025 30.505 7.70491C30.888 8.62958 31.0852 9.62064 31.0852 10.6215C31.0852 11.6224 30.888 12.6135 30.505 13.5381C30.1219 14.4628 29.5604 15.3029 28.8526 16.0106L24.3352 20.528C23.6287 21.2379 22.7885 21.8007 21.8632 22.1838C20.9378 22.5669 19.9457 22.7628 18.9442 22.7601H18.9377C17.2196 22.7578 15.5527 22.1752 14.2072 21.1067C12.8617 20.0383 11.9167 18.5467 11.5252 16.8738C11.4314 16.4707 11.5016 16.0469 11.7203 15.6956C11.939 15.3443 12.2883 15.0943 12.6913 15.0005C13.0943 14.9067 13.5181 14.9769 13.8694 15.1956C14.2207 15.4142 14.4708 15.7635 14.5646 16.1666C14.7963 17.1544 15.355 18.0349 16.1499 18.6654C16.9449 19.2959 17.9296 19.6394 18.9442 19.6401C19.5357 19.6419 20.1216 19.5262 20.6681 19.3C21.2146 19.0737 21.7107 18.7413 22.1278 18.3219L26.6531 13.811C27.4978 12.9663 27.9723 11.8207 27.9723 10.6261C27.9723 9.43148 27.4978 8.28582 26.6531 7.44112C25.8084 6.59642 24.6627 6.12187 23.4681 6.12187C22.2735 6.12187 21.1279 6.59642 20.2832 7.44112L19.6176 8.10671C19.3245 8.39977 18.927 8.5644 18.5126 8.5644C18.0982 8.5644 17.7007 8.39977 17.4076 8.10671C17.1146 7.81365 16.9499 7.41617 16.9499 7.00173C16.9499 6.58728 17.1146 6.1898 17.4076 5.89674L18.0719 5.23245C19.5017 3.80315 21.4406 3.00021 23.4623 3.00021Z" fill="#BE740E"/>
<path d="M14.5984 23.8962C14.7438 24.0412 14.8592 24.2134 14.9379 24.403C15.0167 24.5926 15.0572 24.7959 15.0572 25.0012C15.0572 25.2065 15.0167 25.4098 14.9379 25.5995C14.8592 25.7891 14.7438 25.9613 14.5984 26.1062L13.9328 26.7718C13.2262 27.481 12.3861 28.043 11.461 28.4255C10.5359 28.8079 9.54412 29.0032 8.54306 29C7.03552 29.0004 5.56171 28.5538 4.30808 27.7165C3.05445 26.8791 2.07733 25.6888 1.50036 24.296C0.92338 22.9033 0.772466 21.3707 1.06671 19.8921C1.36095 18.4136 2.08712 17.0555 3.15335 15.9898L7.67078 11.4724C8.63164 10.5116 9.83182 9.8252 11.1471 9.48411C12.4623 9.14301 13.8448 9.15966 15.1515 9.53233C16.4581 9.905 17.6414 10.6201 18.5789 11.6037C19.5163 12.5873 20.1738 13.8036 20.4834 15.1266C20.5346 15.3278 20.5452 15.5371 20.5145 15.7424C20.4838 15.9477 20.4125 16.1449 20.3046 16.3222C20.1968 16.4996 20.0546 16.6537 19.8865 16.7754C19.7183 16.8972 19.5276 16.9841 19.3254 17.0312C19.1232 17.0782 18.9136 17.0845 18.709 17.0495C18.5044 17.0145 18.3088 16.9391 18.1337 16.8276C17.9586 16.7161 17.8075 16.5707 17.6893 16.4001C17.5711 16.2294 17.4882 16.0369 17.4453 15.8338C17.2616 15.0528 16.8727 14.335 16.3187 13.7547C15.7648 13.1744 15.0659 12.7525 14.2942 12.5328C13.5226 12.313 12.7063 12.3034 11.9297 12.5048C11.1531 12.7062 10.4444 13.1114 9.87684 13.6784L5.35942 18.1958C4.72972 18.825 4.30075 19.6268 4.12676 20.4998C3.95276 21.3728 4.04157 22.2778 4.38193 23.1003C4.72229 23.9228 5.29893 24.626 6.03892 25.1207C6.7789 25.6155 7.649 25.8798 8.53916 25.88C9.13063 25.8818 9.71657 25.7661 10.263 25.5399C10.8095 25.3136 11.3057 24.9812 11.7228 24.5618L12.3871 23.8962C12.532 23.7506 12.7043 23.6351 12.8941 23.5562C13.0838 23.4774 13.2873 23.4368 13.4927 23.4368C13.6982 23.4368 13.9016 23.4774 14.0914 23.5562C14.2811 23.6351 14.4534 23.7506 14.5984 23.8962Z" fill="#0E8194"/>
</svg>
